<?xml version="1.0" encoding="utf-8"?>
<!-- Generator: Adobe Illustrator 16.0.4, SVG Export Plug-In . SVG Version: 6.00 Build 0)  -->
<!DOCTYPE svg PUBLIC "-//W3C//DTD SVG 1.1//EN" "http://www.w3.org/Graphics/SVG/1.1/DTD/svg11.dtd">
<svg version="1.1" id="Layer_1" xmlns="http://www.w3.org/2000/svg" xmlns:xlink="http://www.w3.org/1999/xlink" x="0px" y="0px"
	 width="72px" height="72px" viewBox="0 0 72 72" enable-background="new 0 0 72 72" xml:space="preserve">
<g>
	<path fill="#231F20" d="M64.992,23.979C61.915,20.902,57.665,19,52.971,19s-8.944,1.902-12.021,4.979L36,28.93l-4.95-4.95
		C27.974,20.902,23.724,19,19.029,19s-8.944,1.902-12.021,4.979C3.932,27.056,2.029,31.306,2.029,36s1.903,8.944,4.979,12.021
		C10.085,51.098,14.335,53,19.029,53s8.944-1.902,12.021-4.979L36,43.071l4.949,4.949C44.026,51.098,48.276,53,52.971,53
		s8.944-1.902,12.021-4.979c3.076-3.076,4.979-7.326,4.979-12.021S68.068,27.056,64.992,23.979z M29.636,46.606
		C26.803,49.439,23.036,51,19.029,51s-7.774-1.561-10.607-4.394S4.029,40.007,4.029,36s1.56-7.773,4.394-10.606
		C11.255,22.561,15.022,21,19.029,21s7.774,1.561,10.607,4.394l4.95,4.95L36,31.758l1.414,1.414l1.414,1.414L40.242,36l1.414,1.414
		l4.95,4.95C48.235,43.992,50.485,45,52.971,45s4.735-1.008,6.364-2.636c1.628-1.629,2.636-3.879,2.636-6.364
		s-1.008-4.735-2.636-6.364C57.706,28.008,55.456,27,52.971,27s-4.735,1.008-6.364,2.636l-4.95,4.95l-1.414-1.414l4.95-4.95
		C47.27,26.145,50.033,25,52.971,25s5.701,1.145,7.778,3.222c2.077,2.078,3.222,4.84,3.222,7.778s-1.145,5.7-3.222,7.778
		C58.672,45.855,55.908,47,52.971,47s-5.701-1.145-7.778-3.222l-4.95-4.95l-1.414-1.414L37.414,36L36,34.586l-1.414-1.414
		l-1.414-1.414l-4.95-4.95C25.869,24.455,22.619,23,19.029,23s-6.84,1.455-9.192,3.808S6.029,32.41,6.029,36s1.455,6.84,3.808,9.192
		S15.439,49,19.029,49s6.84-1.455,9.192-3.808l4.95-4.95l1.414,1.414h0L29.636,46.606z M43.07,36l4.951-4.95
		c1.322-1.321,3.08-2.05,4.949-2.05s3.627,0.729,4.951,2.051c1.32,1.321,2.049,3.079,2.049,4.949s-0.729,3.628-2.051,4.95
		C56.598,42.271,54.84,43,52.971,43s-3.627-0.729-4.951-2.051L43.07,36z M63.578,46.606C60.744,49.439,56.978,51,52.971,51
		s-7.773-1.561-10.606-4.394l-4.95-4.95h0L36,40.242l-1.414-1.414l-1.414-1.414L31.758,36l-1.414-1.414l-4.95-4.95
		C23.765,28.008,21.515,27,19.029,27s-4.735,1.008-6.364,2.636c-1.628,1.629-2.636,3.879-2.636,6.364s1.007,4.735,2.636,6.364
		C14.294,43.992,16.544,45,19.029,45s4.735-1.008,6.364-2.636l4.95-4.95l1.414,1.414h0l-4.95,4.95C24.73,45.855,21.967,47,19.029,47
		s-5.701-1.145-7.778-3.222C9.173,41.7,8.029,38.938,8.029,36s1.144-5.7,3.222-7.778C13.329,26.145,16.091,25,19.029,25
		s5.701,1.145,7.778,3.222l4.95,4.95h0l1.414,1.414L34.585,36L36,37.414l1.414,1.414l1.414,1.414l4.95,4.95
		C46.131,47.545,49.381,49,52.971,49s6.84-1.455,9.192-3.808S65.971,39.59,65.971,36s-1.455-6.84-3.808-9.192S56.561,23,52.971,23
		s-6.84,1.455-9.192,3.808l-4.95,4.95l-1.414-1.414l4.949-4.95C45.197,22.561,48.964,21,52.971,21s7.773,1.561,10.606,4.394
		s4.394,6.6,4.394,10.606S66.41,43.773,63.578,46.606z M28.929,36l-4.949,4.949C22.657,42.271,20.898,43,19.029,43
		s-3.627-0.729-4.95-2.05c-1.322-1.322-2.05-3.08-2.05-4.95s0.728-3.628,2.049-4.949C15.402,29.729,17.16,29,19.029,29
		s3.627,0.729,4.95,2.05L28.929,36z"/>
	<circle fill="#231F20" cx="19.029" cy="36" r="3"/>
	<circle fill="#231F20" cx="53.029" cy="36" r="3"/>
</g>
</svg>
